<svg width="10" height="10" viewBox="0 0 10 10" fill="none" xmlns="http://www.w3.org/2000/svg">
<g clip-path="url(#clip0_66_34)">
<path d="M5.00006 1.71747L4.55193 1.25684C3.50006 0.175594 1.57131 0.548719 0.875056 1.90809C0.548181 2.54747 0.474431 3.47059 1.07131 4.64872C1.64631 5.78309 2.84256 7.14184 5.00006 8.62184C7.15756 7.14184 8.35318 5.78309 8.92881 4.64872C9.52568 3.46997 9.45256 2.54747 9.12506 1.90809C8.42881 0.548719 6.50006 0.174969 5.44818 1.25622L5.00006 1.71747ZM5.00006 9.37497C-4.58307 3.04247 2.04943 -1.90003 4.89006 0.714344C4.92756 0.748719 4.96443 0.784344 5.00006 0.821219C5.03532 0.784378 5.07201 0.748934 5.11006 0.714969C7.95006 -1.90128 14.5832 3.04184 5.00006 9.37497Z" fill="black"/>
</g>
<defs>
<clipPath id="clip0_66_34">
<rect width="10" height="10" fill="white"/>
</clipPath>
</defs>
</svg>
