<svg width="38" height="38" viewBox="0 0 38 38" fill="none" xmlns="http://www.w3.org/2000/svg">
<path d="M11.875 35.625C13.1867 35.625 14.25 34.5617 14.25 33.25C14.25 31.9383 13.1867 30.875 11.875 30.875C10.5633 30.875 9.5 31.9383 9.5 33.25C9.5 34.5617 10.5633 35.625 11.875 35.625Z" fill="#8E54E9"/>
<path d="M28.5 35.625C29.8117 35.625 30.875 34.5617 30.875 33.25C30.875 31.9383 29.8117 30.875 28.5 30.875C27.1883 30.875 26.125 31.9383 26.125 33.25C26.125 34.5617 27.1883 35.625 28.5 35.625Z" fill="#8E54E9"/>
<path d="M33.1269 12.0937H9.89579L9.03693 7.52119C8.98796 7.27158 8.85634 7.04773 8.66496 6.88859C8.47358 6.72945 8.23457 6.64511 7.98954 6.65025H3.79999V8.82762H7.13068L11.1317 29.7304C11.1807 29.98 11.3123 30.2038 11.5037 30.363C11.6951 30.5221 11.9341 30.6065 12.1791 30.6013H31.0321V28.424H13.038L12.1791 24.0692H31.0321C31.2742 24.0754 31.5109 23.9941 31.7019 23.8393C31.8928 23.6845 32.0263 23.4656 32.0795 23.22L34.1743 13.4219C34.2094 13.2603 34.2085 13.0926 34.1719 12.9314C34.1352 12.7703 34.0636 12.62 33.9626 12.4919C33.8616 12.3638 33.7339 12.2614 33.589 12.1924C33.4442 12.1234 33.2861 12.0896 33.1269 12.0937ZM30.1942 21.8918H11.7811L10.3147 14.271H31.8176L30.1942 21.8918Z" fill="#8E54E9"/>
</svg>
