<svg width="13" height="13" viewBox="0 0 13 13" fill="none" xmlns="http://www.w3.org/2000/svg">
<path d="M7.475 2.59998C7.475 2.34139 7.37228 2.09339 7.18943 1.91055C7.00658 1.7277 6.75859 1.62498 6.5 1.62498C6.24141 1.62498 5.99342 1.7277 5.81057 1.91055C5.62772 2.09339 5.525 2.34139 5.525 2.59998H4.875C4.875 2.169 5.0462 1.75567 5.35095 1.45093C5.6557 1.14618 6.06902 0.974976 6.5 0.974976C6.93098 0.974976 7.3443 1.14618 7.64905 1.45093C7.95379 1.75567 8.125 2.169 8.125 2.59998H11.05C11.1362 2.59998 11.2189 2.63422 11.2798 2.69517C11.3408 2.75612 11.375 2.83878 11.375 2.92498C11.375 3.01117 11.3408 3.09384 11.2798 3.15479C11.2189 3.21573 11.1362 3.24998 11.05 3.24998H10.6899L9.8475 10.5495C9.81082 10.8663 9.65897 11.1586 9.42083 11.3707C9.18269 11.5828 8.87487 11.7 8.55595 11.7H4.44405C4.12513 11.7 3.81731 11.5828 3.57917 11.3707C3.34103 11.1586 3.18918 10.8663 3.1525 10.5495L2.30945 3.24998H1.95C1.87393 3.25 1.80027 3.22334 1.74183 3.17465C1.6834 3.12595 1.64389 3.0583 1.6302 2.98348L1.625 2.92498C1.625 2.83878 1.65924 2.75612 1.72019 2.69517C1.78114 2.63422 1.8638 2.59998 1.95 2.59998H7.475ZM10.0347 3.24998H2.96465L3.79795 10.4747C3.81629 10.6332 3.89227 10.7794 4.01141 10.8854C4.13055 10.9915 4.28453 11.0501 4.44405 11.05H8.55595C8.71536 11.0499 8.86918 10.9913 8.98819 10.8852C9.10719 10.7792 9.18307 10.6331 9.2014 10.4747L10.0347 3.24998ZM5.525 4.87498C5.68425 4.87498 5.8175 4.97573 5.8448 5.10833L5.85 5.15968V9.14093C5.85 9.29758 5.7044 9.42498 5.525 9.42498C5.36575 9.42498 5.2325 9.32423 5.2052 9.19163L5.2 9.14028V5.16033C5.2 5.00303 5.3456 4.87563 5.525 4.87563V4.87498ZM7.475 4.87498C7.63425 4.87498 7.7675 4.97573 7.7948 5.10833L7.8 5.15968V9.14093C7.8 9.29758 7.6544 9.42498 7.475 9.42498C7.31575 9.42498 7.1825 9.32423 7.1552 9.19163L7.15 9.14028V5.16033C7.15 5.00303 7.2956 4.87563 7.475 4.87563V4.87498Z" fill="black" fill-opacity="0.7"/>
</svg>
