<svg width="13" height="13" viewBox="0 0 13 13" fill="none" xmlns="http://www.w3.org/2000/svg">
<path fill-rule="evenodd" clip-rule="evenodd" d="M6.72772 9.76239C6.51619 9.65118 6.26347 9.65118 6.05194 9.76239L3.93625 10.8747C3.40355 11.1547 2.78096 10.7024 2.88269 10.1092L3.28675 7.75336C3.32715 7.51781 3.24906 7.27747 3.07793 7.11065L1.3663 5.44223C0.935337 5.02215 1.17315 4.29024 1.76872 4.2037L4.13413 3.85998C4.37064 3.82562 4.57508 3.67708 4.68085 3.46277L5.73869 1.31935C6.00504 0.779662 6.77462 0.779661 7.04097 1.31934L8.09881 3.46277C8.20458 3.67708 8.40903 3.82562 8.64553 3.85998L11.0109 4.2037C11.6065 4.29024 11.8443 5.02215 11.4134 5.44223L9.70174 7.11065C9.5306 7.27747 9.45251 7.51781 9.49291 7.75336L9.89697 10.1092C9.9987 10.7024 9.37611 11.1547 8.84341 10.8747L6.72772 9.76239Z" fill="#FFC567"/>
</svg>
