<svg width="32" height="32" viewBox="0 0 32 32" fill="none" xmlns="http://www.w3.org/2000/svg">
<path d="M25.3333 29.3334H6.66666C6.31303 29.3334 5.9739 29.1929 5.72385 28.9428C5.4738 28.6928 5.33332 28.3536 5.33332 28V17.3334H2.66666L15.056 4.94268C15.1798 4.81872 15.3269 4.72037 15.4887 4.65327C15.6506 4.58617 15.8241 4.55164 15.9993 4.55164C16.1745 4.55164 16.348 4.58617 16.5099 4.65327C16.6718 4.72037 16.8188 4.81872 16.9427 4.94268L29.3333 17.3334H26.6667V28C26.6667 28.3536 26.5262 28.6928 26.2761 28.9428C26.0261 29.1929 25.6869 29.3334 25.3333 29.3334ZM13.3333 20H18.6667V26.6667H24V15.7707L16 7.77068L7.99999 15.7707V26.6667H13.3333V20Z" fill="#8E54E9"/>
</svg>
