<svg width="28" height="22" viewBox="0 0 28 22" fill="none" xmlns="http://www.w3.org/2000/svg">
<path d="M3.50002 15.5833H24.5C25.1417 15.5833 25.6667 15.9958 25.6667 16.5C25.6667 17.0042 25.1417 17.4167 24.5 17.4167H3.50002C2.85835 17.4167 2.33335 17.0042 2.33335 16.5C2.33335 15.9958 2.85835 15.5833 3.50002 15.5833ZM2.91669 11.5225C3.33669 11.715 3.87335 11.5958 4.11835 11.2658L4.66669 10.5142L5.22669 11.275C5.47169 11.605 6.00835 11.715 6.42835 11.5317C6.84835 11.3392 6.98835 10.9267 6.75502 10.5967L6.18335 9.82667H7.29169C7.77002 9.82667 8.16669 9.515 8.16669 9.13917C8.16669 8.76334 7.77002 8.45167 7.29169 8.45167H6.18335L6.73169 7.7C6.97669 7.37 6.83669 6.94834 6.41669 6.75584C6.21338 6.66692 5.97388 6.64399 5.74935 6.69194C5.52481 6.7399 5.33305 6.85495 5.21502 7.0125L4.66669 7.76417L4.11835 7.0125C4.00032 6.85495 3.80856 6.7399 3.58403 6.69194C3.35949 6.64399 3.11999 6.66692 2.91669 6.75584C2.49669 6.94834 2.35669 7.37 2.60169 7.7L3.15002 8.45167H2.04169C1.56335 8.45167 1.16669 8.76334 1.16669 9.13917C1.16669 9.515 1.56335 9.82667 2.04169 9.82667H3.15002L2.59002 10.5875C2.35669 10.9175 2.49669 11.3392 2.91669 11.5225ZM12.25 11.5225C12.67 11.715 13.2067 11.5958 13.4517 11.2658L14 10.5142L14.56 11.275C14.805 11.605 15.3417 11.715 15.7617 11.5317C16.1817 11.3392 16.3217 10.9267 16.0884 10.5967L15.5284 9.83583H16.6367C17.115 9.83583 17.5117 9.52417 17.5117 9.14833C17.5117 8.7725 17.115 8.46083 16.6367 8.46083H15.5167L16.065 7.70917C16.1804 7.55074 16.212 7.36306 16.1531 7.1865C16.0942 7.00993 15.9495 6.85858 15.75 6.765C15.6512 6.71985 15.542 6.69043 15.4287 6.67844C15.3155 6.66644 15.2003 6.67209 15.0898 6.69507C14.9793 6.71806 14.8756 6.75792 14.7847 6.81238C14.6938 6.86685 14.6175 6.93485 14.56 7.0125L14 7.76417L13.4517 7.0125C13.3947 6.93449 13.3186 6.86613 13.2277 6.81139C13.1369 6.75665 13.0331 6.71661 12.9224 6.69359C12.8118 6.67057 12.6964 6.66503 12.583 6.67729C12.4695 6.68955 12.3603 6.71936 12.2617 6.765C11.8417 6.9575 11.7017 7.37917 11.9467 7.70917L12.495 8.46083H11.375C11.2607 8.45962 11.1471 8.47627 11.0411 8.50982C10.935 8.54336 10.8384 8.59313 10.757 8.65624C10.6756 8.71935 10.6109 8.79454 10.5668 8.87745C10.5227 8.96035 10.5 9.04931 10.5 9.13917C10.5 9.515 10.8967 9.82667 11.375 9.82667H12.4834L11.9234 10.5875C11.69 10.9175 11.83 11.3392 12.25 11.5225ZM26.8334 9.13917C26.8334 8.76334 26.4367 8.45167 25.9584 8.45167H24.85L25.3984 7.7C25.5137 7.54158 25.5454 7.3539 25.4865 7.17733C25.4276 7.00076 25.2828 6.84941 25.0834 6.75584C24.9845 6.71068 24.8754 6.68127 24.7621 6.66927C24.6488 6.65727 24.5336 6.66292 24.4231 6.68591C24.3126 6.70889 24.2089 6.74875 24.118 6.80322C24.0271 6.85768 23.9508 6.92568 23.8934 7.00334L23.3334 7.76417L22.785 7.0125C22.728 6.93449 22.6519 6.86613 22.5611 6.81139C22.4702 6.75665 22.3664 6.71661 22.2558 6.69359C22.1451 6.67057 22.0297 6.66503 21.9163 6.67729C21.8029 6.68955 21.6937 6.71936 21.595 6.765C21.175 6.9575 21.035 7.37917 21.28 7.70917L21.8284 8.46083H20.72C20.6048 8.45876 20.4903 8.47476 20.383 8.50788C20.2758 8.54101 20.178 8.5906 20.0955 8.65376C20.0129 8.71692 19.9472 8.79238 19.9022 8.87573C19.8572 8.95907 19.8338 9.04863 19.8334 9.13917C19.8334 9.515 20.23 9.82667 20.7084 9.82667H21.8167L21.2567 10.5875C21.1988 10.6655 21.1612 10.7518 21.1463 10.8414C21.1314 10.9309 21.1394 11.0219 21.1698 11.109C21.2002 11.1961 21.2525 11.2775 21.3235 11.3485C21.3945 11.4195 21.4829 11.4787 21.5834 11.5225C22.0034 11.715 22.54 11.5958 22.785 11.2658L23.3334 10.5142L23.8934 11.275C24.1384 11.605 24.675 11.715 25.095 11.5317C25.515 11.3392 25.655 10.9267 25.4217 10.5967L24.8617 9.83583H25.97C26.4367 9.82667 26.8334 9.515 26.8334 9.13917Z" fill="#6369E8"/>
</svg>
