<svg width="32" height="32" viewBox="0 0 32 32" fill="none" xmlns="http://www.w3.org/2000/svg">
<path d="M20 25.3333C20 26.3942 19.5786 27.4116 18.8285 28.1617C18.0783 28.9119 17.0609 29.3333 16 29.3333C14.9392 29.3333 13.9217 28.9119 13.1716 28.1617C12.4215 27.4116 12 26.3942 12 25.3333M16.9614 6.67065L15.0067 6.66665C10.548 6.65598 6.67736 10.2786 6.64669 14.6666V19.72C6.64669 20.7733 6.51336 21.8013 5.93869 22.6773L5.55602 23.2613C4.97336 24.1466 5.60003 25.3333 6.64669 25.3333H25.3534C26.4 25.3333 27.0254 24.1466 26.444 23.2613L26.0614 22.6773C25.488 21.8013 25.3534 20.772 25.3534 19.7186V14.668C25.3 10.2786 21.42 6.68132 16.9614 6.67065V6.67065Z" stroke="#8E54E9" stroke-width="2" stroke-linecap="round" stroke-linejoin="round"/>
<path d="M16 2.66663C16.7073 2.66663 17.3856 2.94758 17.8857 3.44767C18.3858 3.94777 18.6667 4.62605 18.6667 5.33329V6.66663H13.3334V5.33329C13.3334 4.62605 13.6143 3.94777 14.1144 3.44767C14.6145 2.94758 15.2928 2.66663 16 2.66663Z" stroke="#8E54E9" stroke-width="2" stroke-linecap="round" stroke-linejoin="round"/>
</svg>
