<svg width="29" height="29" viewBox="0 0 29 29" fill="none" xmlns="http://www.w3.org/2000/svg">
<g clip-path="url(#clip0_16_91)">
<path d="M6.76672 11.6C6.51034 11.6 6.26446 11.7018 6.08318 11.8831C5.90189 12.0644 5.80005 12.3103 5.80005 12.5667V16.4333C5.80005 16.6897 5.90189 16.9356 6.08318 17.1169C6.26446 17.2982 6.51034 17.4 6.76672 17.4C7.02309 17.4 7.26897 17.2982 7.45025 17.1169C7.63154 16.9356 7.73338 16.6897 7.73338 16.4333V12.5667C7.73338 12.3103 7.63154 12.0644 7.45025 11.8831C7.26897 11.7018 7.02309 11.6 6.76672 11.6ZM21.2667 13.5333H22.2334C22.4898 13.5333 22.7356 13.4315 22.9169 13.2502C23.0982 13.0689 23.2 12.823 23.2 12.5667C23.2 12.3103 23.0982 12.0644 22.9169 11.8831C22.7356 11.7018 22.4898 11.6 22.2334 11.6H21.2667V13.5333Z" fill="#6369E8"/>
<path fill-rule="evenodd" clip-rule="evenodd" d="M0 2.9C0 2.13087 0.305535 1.39325 0.84939 0.84939C1.39325 0.305535 2.13087 0 2.9 0L26.1 0C26.8691 0 27.6068 0.305535 28.1506 0.84939C28.6945 1.39325 29 2.13087 29 2.9V26.1C29 26.8691 28.6945 27.6068 28.1506 28.1506C27.6068 28.6945 26.8691 29 26.1 29H2.9C2.13087 29 1.39325 28.6945 0.84939 28.1506C0.305535 27.6068 0 26.8691 0 26.1L0 2.9ZM3.86667 12.5667C3.86667 12.1858 3.94168 11.8087 4.08742 11.4569C4.23315 11.105 4.44677 10.7853 4.71606 10.5161C4.98535 10.2468 5.30504 10.0332 5.65688 9.88742C6.00873 9.74168 6.38583 9.66667 6.76667 9.66667C7.1475 9.66667 7.5246 9.74168 7.87645 9.88742C8.22829 10.0332 8.54799 10.2468 8.81728 10.5161C9.08657 10.7853 9.30018 11.105 9.44592 11.4569C9.59166 11.8087 9.66667 12.1858 9.66667 12.5667V16.4333C9.66667 16.8142 9.59166 17.1913 9.44592 17.5431C9.30018 17.895 9.08657 18.2147 8.81728 18.4839C8.54799 18.7532 8.22829 18.9668 7.87645 19.1126C7.5246 19.2583 7.1475 19.3333 6.76667 19.3333C6.38583 19.3333 6.00873 19.2583 5.65688 19.1126C5.30504 18.9668 4.98535 18.7532 4.71606 18.4839C4.44677 18.2147 4.23315 17.895 4.08742 17.5431C3.94168 17.1913 3.86667 16.8142 3.86667 16.4333V12.5667ZM13.5333 11.6H11.6V9.66667H17.4V11.6H15.4667V19.3333H13.5333V11.6ZM19.3333 9.66667H22.2333C23.0025 9.66667 23.7401 9.9722 24.2839 10.5161C24.8278 11.0599 25.1333 11.7975 25.1333 12.5667C25.1333 13.3358 24.8278 14.0734 24.2839 14.6173C23.7401 15.1611 23.0025 15.4667 22.2333 15.4667H21.2667V19.3333H19.3333V9.66667Z" fill="#6369E8"/>
</g>
<defs>
<clipPath id="clip0_16_91">
<rect width="29" height="29" fill="white"/>
</clipPath>
</defs>
</svg>
